<svg xmlns="http://www.w3.org/2000/svg" viewBox="0 0 16 16" shape-rendering="geometricPrecision" text-rendering="geometricPrecision"><path d="M3.33.025h1.325l.835 2.98.834-2.98H7.66L6.398 4.12l.939 2.877L9.435 0H11L7.984 9h-1.21L5.49 5.223 4.206 9h-1.21L0 0h1.545l2.108 6.997.918-2.877L3.33.025Z" fill="#2196f3"/><path d="M14.467 8.642a3.002 3.002 0 0 0-.463-.263 5.15 5.15 0 0 0-.803-.318 7.223 7.223 0 0 0-1.016-.277 5.705 5.705 0 0 0-1.123-.11c-.677 0-1.182.096-1.515.29s-.499.466-.499.816c0 .203.06.374.178.512.131.129.315.244.553.346s.535.193.891.276c.369.083.79.17 1.266.263.567.117 1.126.255 1.675.415.511.148.94.332 1.284.553.356.222.63.489.82.802.19.305.285.683.285 1.135 0 .525-.13.977-.392 1.355a2.771 2.771 0 0 1-1.034.9 5.25 5.25 0 0 1-1.497.51 9.867 9.867 0 0 1-1.765.153c-.95 0-1.89-.11-2.816-.332A9.934 9.934 0 0 1 6 14.728l1.087-1.646c.107.083.297.193.57.332.286.129.619.262.999.4.38.13.802.24 1.266.333.466.092.945.139 1.426.138 1.354 0 2.032-.337 2.032-1.01 0-.212-.078-.392-.232-.54s-.374-.276-.66-.386a7.528 7.528 0 0 0-1.033-.305c-.404-.092-.856-.193-1.355-.304-.54-.112-1.07-.25-1.587-.415a4.847 4.847 0 0 1-1.105-.54 2.32 2.32 0 0 1-.677-.719 2.117 2.117 0 0 1-.214-.982c0-.497.119-.94.356-1.327s.565-.71.98-.969c.443-.263.945-.46 1.48-.58a7.476 7.476 0 0 1 1.8-.208c.892 0 1.712.11 2.46.332a10.09 10.09 0 0 1 1.961.76l-1.087 1.55Zm4.125 0" fill="#212121"/></svg>